<?xml version="1.0" encoding="utf-8"?>
<svg xmlns="http://www.w3.org/2000/svg" xmlns:xlink="http://www.w3.org/1999/xlink" version="1.1" id="Ebene_1" x="0px" y="0px" viewBox="0 0 218.5 56.7" style="enable-background:new 0 0 218.5 56.7;" xml:space="preserve" width="193" height="50">
<style type="text/css">
	.st0{fill:#164194;}
	.st1{fill:none;}
</style>
<g>
	<g>
		<path class="st0" d="M74.9,37.9v1h-3.5v1.6h3.3v1h-3.3v1.8h3.5v1h-4.8v-6.5H74.9z"/>
		<path class="st0" d="M75.8,39v-1h5.3v1h-2v5.5h-1.3V39H75.8z"/>
		<path class="st0" d="M84.7,37.9c1.2,0,2.4,0.4,2.4,1.7c0,0.6-0.4,1.2-0.7,1.4c0.5,0.2,1,0.6,1,1.5c0,1.4-1.2,1.9-2.5,1.9h-2.7    v-6.5H84.7z M84.8,40.6c0.6,0,1-0.3,1-0.9c0-0.5-0.4-0.8-1-0.8h-1.3v1.7H84.8z M84.9,43.4c0.7,0,1.1-0.3,1.1-0.9    c0-0.6-0.4-0.9-1.2-0.9h-1.4v1.9H84.9z"/>
		<path class="st0" d="M96.5,37.9v0.8H93v2h3.3v0.8H93v2.2h3.5v0.8h-4.4v-6.5H96.5z"/>
		<path class="st0" d="M99,44.6c-1.1,0-1.6-0.8-1.6-1.9v-3.1h0.8v2.9c0,0.7,0.1,1.4,1,1.4c0.8,0,1.2-0.5,1.2-1.6v-2.7h0.8v4.9h-0.8    v-0.7C100.2,44.2,99.8,44.6,99,44.6z"/>
		<path class="st0" d="M104.6,40.4c-0.8,0-1.1,0.4-1.1,1.5v2.5h-0.8v-4.9h0.8v0.8c0.2-0.6,0.7-0.9,1.4-0.9c0.1,0,0.2,0,0.2,0v0.9    C104.9,40.4,104.7,40.4,104.6,40.4z"/>
		<path class="st0" d="M107.9,44.6c-1.1,0-2.3-0.8-2.3-2.5c0-1.8,1.2-2.5,2.3-2.5c1.1,0,2.3,0.8,2.3,2.5    C110.2,43.8,109,44.6,107.9,44.6z M109.3,42c0-1.3-0.7-1.8-1.5-1.8c-0.7,0-1.5,0.5-1.5,1.8c0,1.3,0.7,1.8,1.5,1.8    C108.6,43.8,109.3,43.3,109.3,42z"/>
		<path class="st0" d="M115.5,37.9v6.5h-0.8v-0.7c-0.3,0.5-0.8,0.8-1.6,0.8c-1.1,0-2.1-0.9-2.1-2.5c0-1.6,1-2.5,2.1-2.5    c0.8,0,1.3,0.3,1.6,0.8v-2.5H115.5z M111.9,42c0,1.2,0.6,1.8,1.4,1.8c0.7,0,1.4-0.5,1.4-1.8s-0.7-1.8-1.4-1.8    C112.4,40.2,111.9,40.9,111.9,42z"/>
		<path class="st0" d="M117.6,38.9h-0.8v-1h0.8V38.9z M117.6,44.4h-0.8v-4.9h0.8V44.4z"/>
		<path class="st0" d="M120.6,40.2c-0.5,0-1,0.2-1,0.6c0,0.4,0.3,0.6,0.7,0.7l0.7,0.1c0.9,0.2,1.7,0.5,1.7,1.4c0,1-0.9,1.5-2,1.5    c-1.3,0-2-0.8-2.1-1.7h0.9c0.1,0.6,0.5,1,1.2,1c0.6,0,1.1-0.3,1.1-0.7c0-0.5-0.5-0.7-1-0.8l-0.7-0.1c-0.7-0.1-1.4-0.4-1.4-1.3    c0-0.9,0.9-1.4,1.9-1.4c1,0,1.8,0.6,1.9,1.5h-0.9C121.6,40.4,121.2,40.2,120.6,40.2z"/>
		<path class="st0" d="M124.8,38.4v1.2h0.9v0.7h-0.9v2.9c0,0.5,0,0.6,0.5,0.6h0.4v0.7h-0.6c-0.9,0-1.1-0.2-1.1-1.2v-3h-0.8v-0.7h0.8    v-1.2H124.8z"/>
		<path class="st0" d="M128.7,40.4c-0.8,0-1.1,0.4-1.1,1.5v2.5h-0.8v-4.9h0.8v0.8c0.2-0.6,0.7-0.9,1.4-0.9c0.1,0,0.2,0,0.2,0v0.9    C129,40.4,128.8,40.4,128.7,40.4z"/>
		<path class="st0" d="M130.8,38.9H130v-1h0.8V38.9z M130.8,44.4H130v-4.9h0.8V44.4z"/>
		<path class="st0" d="M135.4,41.2c-0.1-0.6-0.6-1-1.3-1c-0.7,0-1.4,0.6-1.4,1.8c0,1.2,0.7,1.8,1.4,1.8c0.7,0,1.2-0.5,1.3-1h0.8    c-0.2,0.9-1,1.7-2.2,1.7c-1.4,0-2.3-1.1-2.3-2.5c0-1.4,0.9-2.5,2.3-2.5c1.2,0,1.9,0.9,2,1.7H135.4z"/>
		<path class="st0" d="M138.3,38.4v1.2h0.9v0.7h-0.9v2.9c0,0.5,0,0.6,0.5,0.6h0.4v0.7h-0.6c-0.9,0-1.1-0.2-1.1-1.2v-3h-0.8v-0.7h0.8    v-1.2H138.3z"/>
		<path class="st0" d="M141.7,38.7v-0.8h5.2v0.8h-2.1v5.7h-0.9v-5.7H141.7z"/>
		<path class="st0" d="M148.9,40.4c-0.8,0-1.1,0.4-1.1,1.5v2.5H147v-4.9h0.8v0.8c0.2-0.6,0.7-0.9,1.4-0.9c0.1,0,0.2,0,0.2,0v0.9    C149.2,40.4,149.1,40.4,148.9,40.4z"/>
		<path class="st0" d="M151,38.9h-0.8v-1h0.8V38.9z M151,44.4h-0.8v-4.9h0.8V44.4z"/>
		<path class="st0" d="M154.8,39.5c1.2,0,1.6,0.8,1.6,1.9v3.1h-0.8v-2.8c0-0.7-0.1-1.4-1.1-1.4c-0.8,0-1.3,0.6-1.3,1.6v2.6h-0.8    v-4.9h0.8v0.7C153.5,39.9,153.9,39.5,154.8,39.5z"/>
		<path class="st0" d="M160.6,41.5v-0.1c0-0.9-0.5-1.2-1.1-1.2c-0.7,0-1.1,0.4-1.1,1h-0.8c0.1-1,1-1.6,1.9-1.6c1.3,0,1.9,0.6,1.9,2    l0,1.1c0,0.8,0,1.4,0.1,1.8h-0.8c0-0.2-0.1-0.4-0.1-0.7c-0.3,0.5-0.8,0.8-1.7,0.8c-0.9,0-1.7-0.5-1.7-1.4    C157.3,42,158.6,41.7,160.6,41.5z M158.3,43.1c0,0.5,0.4,0.8,0.9,0.8c0.8,0,1.5-0.4,1.5-1.5v-0.3    C159.2,42.3,158.3,42.5,158.3,43.1z"/>
		<path class="st0" d="M163.7,38.4v1.2h0.9v0.7h-0.9v2.9c0,0.5,0,0.6,0.5,0.6h0.4v0.7h-0.6c-0.9,0-1.1-0.2-1.1-1.2v-3h-0.8v-0.7h0.8    v-1.2H163.7z"/>
		<path class="st0" d="M166.5,38.9h-0.8v-1h0.8V38.9z M166.5,44.4h-0.8v-4.9h0.8V44.4z"/>
		<path class="st0" d="M169.8,44.6c-1.1,0-2.3-0.8-2.3-2.5c0-1.8,1.2-2.5,2.3-2.5c1.1,0,2.3,0.8,2.3,2.5    C172.2,43.8,171,44.6,169.8,44.6z M171.3,42c0-1.3-0.7-1.8-1.5-1.8c-0.7,0-1.5,0.5-1.5,1.8c0,1.3,0.7,1.8,1.5,1.8    C170.6,43.8,171.3,43.3,171.3,42z"/>
		<path class="st0" d="M175.6,39.5c1.2,0,1.6,0.8,1.6,1.9v3.1h-0.8v-2.8c0-0.7-0.1-1.4-1.1-1.4c-0.8,0-1.3,0.6-1.3,1.6v2.6h-0.8    v-4.9h0.8v0.7C174.3,39.9,174.8,39.5,175.6,39.5z"/>
		<path class="st0" d="M181.5,41.5v-0.1c0-0.9-0.5-1.2-1.1-1.2c-0.7,0-1.1,0.4-1.1,1h-0.8c0.1-1,1-1.6,1.9-1.6c1.3,0,1.9,0.6,1.9,2    l0,1.1c0,0.8,0,1.4,0.1,1.8h-0.8c0-0.2-0.1-0.4-0.1-0.7c-0.3,0.5-0.8,0.8-1.7,0.8c-0.9,0-1.7-0.5-1.7-1.4    C178.2,42,179.5,41.7,181.5,41.5z M179.1,43.1c0,0.5,0.4,0.8,0.9,0.8c0.8,0,1.5-0.4,1.5-1.5v-0.3    C180.1,42.3,179.1,42.5,179.1,43.1z"/>
		<path class="st0" d="M183.6,44.4v-6.5h0.8v6.5H183.6z"/>
		<path class="st0" d="M192,37.9v6.5h-0.8v-0.7c-0.3,0.5-0.8,0.8-1.6,0.8c-1.1,0-2.1-0.9-2.1-2.5c0-1.6,1-2.5,2.1-2.5    c0.8,0,1.3,0.3,1.6,0.8v-2.5H192z M188.4,42c0,1.2,0.6,1.8,1.4,1.8c0.7,0,1.4-0.5,1.4-1.8s-0.7-1.8-1.4-1.8    C189,40.2,188.4,40.9,188.4,42z"/>
		<path class="st0" d="M195.4,43.8c0.7,0,1.1-0.3,1.3-0.8h0.8c-0.2,0.8-1,1.5-2.2,1.5c-1.5,0-2.4-1.1-2.4-2.5c0-1.5,1-2.5,2.4-2.5    c1.5,0,2.4,1.2,2.3,2.8h-3.7C194,43.3,194.7,43.8,195.4,43.8z M196.8,41.6c0-0.7-0.5-1.4-1.4-1.4c-0.7,0-1.4,0.4-1.5,1.4H196.8z"/>
		<path class="st0" d="M203.2,37.9c1.2,0,2.3,0.3,2.3,1.6c0,0.6-0.3,1.2-0.7,1.4c0.6,0.3,1,0.7,1,1.6c0,1.4-1,1.9-2.3,1.9h-2.6v-6.5    H203.2z M203.4,40.7c0.7,0,1.2-0.3,1.2-1.1c0-0.7-0.5-1-1.2-1h-1.6v2H203.4z M203.5,43.7c0.9,0,1.4-0.4,1.4-1.1    c0-0.8-0.5-1.1-1.4-1.1h-1.6v2.2H203.5z"/>
		<path class="st0" d="M209.9,41.5v-0.1c0-0.9-0.5-1.2-1.1-1.2c-0.7,0-1.1,0.4-1.1,1h-0.8c0.1-1,1-1.6,1.9-1.6c1.3,0,1.9,0.6,1.9,2    l0,1.1c0,0.8,0,1.4,0.1,1.8H210c0-0.2-0.1-0.4-0.1-0.7c-0.3,0.5-0.8,0.8-1.7,0.8c-0.9,0-1.7-0.5-1.7-1.4    C206.7,42,207.9,41.7,209.9,41.5z M209.6,39l-0.7-0.5l-0.7,0.5h-0.9l1.2-1h0.8l1.2,1H209.6z M207.6,43.1c0,0.5,0.4,0.8,0.9,0.8    c0.8,0,1.5-0.4,1.5-1.5v-0.3C208.5,42.3,207.6,42.5,207.6,43.1z"/>
		<path class="st0" d="M212,44.4v-6.5h0.8v6.5H212z"/>
		<path class="st0" d="M216.3,43.8c0.7,0,1.1-0.3,1.3-0.8h0.8c-0.2,0.8-1,1.5-2.2,1.5c-1.5,0-2.4-1.1-2.4-2.5c0-1.5,1-2.5,2.4-2.5    c1.5,0,2.4,1.2,2.3,2.8h-3.7C214.8,43.3,215.6,43.8,216.3,43.8z M217.7,41.6c0-0.7-0.5-1.4-1.4-1.4c-0.7,0-1.4,0.4-1.5,1.4H217.7z    "/>
		<path class="st0" d="M69.6,51v-1h5.3v1h-2v5.5h-1.3V51H69.6z"/>
		<path class="st0" d="M80.8,49.9v1h-3.5v1.6h3.3v1h-3.3v1.8h3.5v1H76v-6.5H80.8z"/>
		<path class="st0" d="M84.7,49.9c1.2,0,2.4,0.4,2.4,1.7c0,0.6-0.4,1.2-0.7,1.4c0.5,0.2,1,0.6,1,1.5c0,1.4-1.2,1.9-2.5,1.9h-2.7    v-6.5H84.7z M84.8,52.6c0.6,0,1-0.3,1-0.9c0-0.5-0.4-0.8-1-0.8h-1.3v1.7H84.8z M84.9,55.5c0.7,0,1.1-0.3,1.1-0.9    c0-0.6-0.4-0.9-1.2-0.9h-1.4v1.9H84.9z"/>
		<path class="st0" d="M91.1,50.7v-0.8h5.2v0.8h-2.1v5.7h-0.9v-5.7H91.1z"/>
		<path class="st0" d="M98.3,52.4c-0.8,0-1.1,0.4-1.1,1.5v2.5h-0.8v-4.9h0.8v0.8c0.2-0.6,0.7-0.9,1.4-0.9c0.1,0,0.2,0,0.2,0v0.9    C98.6,52.5,98.5,52.4,98.3,52.4z"/>
		<path class="st0" d="M100.4,50.9h-0.8v-1h0.8V50.9z M100.4,56.5h-0.8v-4.9h0.8V56.5z"/>
		<path class="st0" d="M104.2,51.5c1.2,0,1.6,0.8,1.6,1.9v3.1h-0.8v-2.8c0-0.7-0.1-1.4-1.1-1.4c-0.8,0-1.3,0.6-1.3,1.6v2.6h-0.8    v-4.9h0.8v0.7C102.9,51.9,103.3,51.5,104.2,51.5z"/>
		<path class="st0" d="M110,53.5v-0.1c0-0.9-0.5-1.2-1.1-1.2c-0.7,0-1.1,0.4-1.1,1H107c0.1-1,1-1.6,1.9-1.6c1.3,0,1.9,0.6,1.9,2    l0,1.1c0,0.8,0,1.4,0.1,1.8h-0.8c0-0.2-0.1-0.4-0.1-0.7c-0.3,0.5-0.8,0.8-1.7,0.8c-0.9,0-1.7-0.5-1.7-1.4    C106.7,54,108,53.7,110,53.5z M107.7,55.2c0,0.5,0.4,0.8,0.9,0.8c0.8,0,1.5-0.4,1.5-1.5v-0.3C108.6,54.3,107.7,54.5,107.7,55.2z"/>
		<path class="st0" d="M113.1,50.4v1.2h0.9v0.7h-0.9v2.9c0,0.5,0,0.6,0.5,0.6h0.4v0.7h-0.6c-0.9,0-1.1-0.2-1.1-1.2v-3h-0.8v-0.7h0.8    v-1.2H113.1z"/>
		<path class="st0" d="M115.9,50.9H115v-1h0.8V50.9z M115.9,56.5H115v-4.9h0.8V56.5z"/>
		<path class="st0" d="M119.2,56.6c-1.1,0-2.3-0.8-2.3-2.5c0-1.8,1.2-2.5,2.3-2.5c1.1,0,2.3,0.8,2.3,2.5    C121.6,55.8,120.4,56.6,119.2,56.6z M120.7,54.1c0-1.3-0.7-1.8-1.5-1.8c-0.7,0-1.5,0.5-1.5,1.8c0,1.3,0.7,1.8,1.5,1.8    C120,55.9,120.7,55.3,120.7,54.1z"/>
		<path class="st0" d="M125,51.5c1.2,0,1.6,0.8,1.6,1.9v3.1h-0.8v-2.8c0-0.7-0.1-1.4-1.1-1.4c-0.8,0-1.3,0.6-1.3,1.6v2.6h-0.8v-4.9    h0.8v0.7C123.7,51.9,124.2,51.5,125,51.5z"/>
		<path class="st0" d="M130.9,53.5v-0.1c0-0.9-0.5-1.2-1.1-1.2c-0.7,0-1.1,0.4-1.1,1h-0.8c0.1-1,1-1.6,1.9-1.6c1.3,0,1.9,0.6,1.9,2    l0,1.1c0,0.8,0,1.4,0.1,1.8H131c0-0.2-0.1-0.4-0.1-0.7c-0.3,0.5-0.8,0.8-1.7,0.8c-0.9,0-1.7-0.5-1.7-1.4    C127.6,54,128.9,53.7,130.9,53.5z M128.5,55.2c0,0.5,0.4,0.8,0.9,0.8c0.8,0,1.5-0.4,1.5-1.5v-0.3    C129.5,54.3,128.5,54.5,128.5,55.2z"/>
		<path class="st0" d="M133,56.5v-6.5h0.8v6.5H133z"/>
		<path class="st0" d="M137.2,55.9c0.7,0,1.1-0.3,1.3-0.8h0.8c-0.2,0.8-1,1.5-2.2,1.5c-1.5,0-2.4-1.1-2.4-2.5c0-1.5,1-2.5,2.4-2.5    c1.5,0,2.4,1.2,2.3,2.8h-3.7C135.8,55.4,136.5,55.9,137.2,55.9z M138.6,53.6c0-0.7-0.5-1.4-1.4-1.4c-0.7,0-1.4,0.4-1.5,1.4H138.6z    "/>
		<path class="st0" d="M142.5,52.4c-0.8,0-1.1,0.4-1.1,1.5v2.5h-0.8v-4.9h0.8v0.8c0.2-0.6,0.7-0.9,1.4-0.9c0.1,0,0.2,0,0.2,0v0.9    C142.8,52.5,142.6,52.4,142.5,52.4z"/>
		<path class="st0" d="M150.4,49.9v0.8h-3.5v2h3.3v0.8h-3.3v2.2h3.5v0.8H146v-6.5H150.4z"/>
		<path class="st0" d="M152.9,56.6c-1.1,0-1.6-0.8-1.6-1.9v-3.1h0.8v2.9c0,0.7,0.1,1.4,1,1.4c0.8,0,1.2-0.5,1.2-1.6v-2.7h0.8v4.9    h-0.8v-0.7C154.1,56.2,153.7,56.6,152.9,56.6z"/>
		<path class="st0" d="M158.5,52.4c-0.8,0-1.1,0.4-1.1,1.5v2.5h-0.8v-4.9h0.8v0.8c0.2-0.6,0.7-0.9,1.4-0.9c0.1,0,0.2,0,0.2,0v0.9    C158.8,52.5,158.7,52.4,158.5,52.4z"/>
		<path class="st0" d="M161.8,56.6c-1.1,0-2.3-0.8-2.3-2.5c0-1.8,1.2-2.5,2.3-2.5c1.1,0,2.3,0.8,2.3,2.5    C164.1,55.8,162.9,56.6,161.8,56.6z M163.3,54.1c0-1.3-0.7-1.8-1.5-1.8c-0.7,0-1.5,0.5-1.5,1.8c0,1.3,0.7,1.8,1.5,1.8    C162.5,55.9,163.3,55.3,163.3,54.1z"/>
		<path class="st0" d="M169.4,49.9v6.5h-0.8v-0.7c-0.3,0.5-0.8,0.8-1.6,0.8c-1.1,0-2.1-0.9-2.1-2.5c0-1.6,1-2.5,2.1-2.5    c0.8,0,1.3,0.3,1.6,0.8v-2.5H169.4z M165.8,54.1c0,1.2,0.6,1.8,1.4,1.8c0.7,0,1.4-0.5,1.4-1.8s-0.7-1.8-1.4-1.8    C166.3,52.2,165.8,52.9,165.8,54.1z"/>
		<path class="st0" d="M171.5,50.9h-0.8v-1h0.8V50.9z M171.5,56.5h-0.8v-4.9h0.8V56.5z"/>
		<path class="st0" d="M174.5,52.2c-0.5,0-1,0.2-1,0.6c0,0.4,0.3,0.6,0.7,0.7l0.7,0.1c0.9,0.2,1.7,0.5,1.7,1.4c0,1-0.9,1.5-2,1.5    c-1.3,0-2-0.8-2.1-1.7h0.9c0.1,0.6,0.5,1,1.2,1c0.6,0,1.1-0.3,1.1-0.7c0-0.5-0.5-0.7-1-0.8l-0.7-0.1c-0.7-0.1-1.4-0.4-1.4-1.3    c0-0.9,0.9-1.4,1.9-1.4c1,0,1.8,0.6,1.9,1.5h-0.9C175.6,52.5,175.1,52.2,174.5,52.2z"/>
		<path class="st0" d="M178.8,50.4v1.2h0.9v0.7h-0.9v2.9c0,0.5,0,0.6,0.5,0.6h0.4v0.7h-0.6c-0.9,0-1.1-0.2-1.1-1.2v-3h-0.8v-0.7h0.8    v-1.2H178.8z"/>
		<path class="st0" d="M182.6,52.4c-0.8,0-1.1,0.4-1.1,1.5v2.5h-0.8v-4.9h0.8v0.8c0.2-0.6,0.7-0.9,1.4-0.9c0.1,0,0.2,0,0.2,0v0.9    C182.9,52.5,182.7,52.4,182.6,52.4z"/>
		<path class="st0" d="M184.7,50.9h-0.8v-1h0.8V50.9z M184.7,56.5h-0.8v-4.9h0.8V56.5z"/>
		<path class="st0" d="M189.3,53.2c-0.1-0.6-0.6-1-1.3-1c-0.7,0-1.4,0.6-1.4,1.8c0,1.2,0.7,1.8,1.4,1.8c0.7,0,1.2-0.5,1.3-1h0.8    c-0.2,0.9-1,1.7-2.2,1.7c-1.4,0-2.3-1.1-2.3-2.5c0-1.4,0.9-2.5,2.3-2.5c1.2,0,1.9,0.9,2,1.7H189.3z"/>
		<path class="st0" d="M192.2,50.4v1.2h0.9v0.7h-0.9v2.9c0,0.5,0,0.6,0.5,0.6h0.4v0.7h-0.6c-0.9,0-1.1-0.2-1.1-1.2v-3h-0.8v-0.7h0.8    v-1.2H192.2z"/>
		<path class="st0" d="M198.7,49.9c1.2,0,2.3,0.3,2.3,1.6c0,0.6-0.3,1.2-0.7,1.4c0.6,0.3,1,0.7,1,1.6c0,1.4-1,1.9-2.3,1.9h-2.6v-6.5    H198.7z M198.9,52.7c0.7,0,1.2-0.3,1.2-1.1c0-0.7-0.5-1-1.2-1h-1.6v2H198.9z M199,55.7c0.9,0,1.4-0.4,1.4-1.1    c0-0.8-0.5-1.1-1.4-1.1h-1.6v2.2H199z"/>
		<path class="st0" d="M205.4,53.5v-0.1c0-0.9-0.5-1.2-1.1-1.2c-0.7,0-1.1,0.4-1.1,1h-0.8c0.1-1,1-1.6,1.9-1.6c1.3,0,1.9,0.6,1.9,2    l0,1.1c0,0.8,0,1.4,0.1,1.8h-0.8c0-0.2-0.1-0.4-0.1-0.7c-0.3,0.5-0.8,0.8-1.7,0.8c-0.9,0-1.7-0.5-1.7-1.4    C202.2,54,203.4,53.7,205.4,53.5z M203.1,55.2c0,0.5,0.4,0.8,0.9,0.8c0.8,0,1.5-0.4,1.5-1.5v-0.3C204,54.3,203.1,54.5,203.1,55.2z    "/>
		<path class="st0" d="M209.2,52.2c-0.5,0-1,0.2-1,0.6c0,0.4,0.3,0.6,0.7,0.7l0.7,0.1c0.9,0.2,1.7,0.5,1.7,1.4c0,1-0.9,1.5-2,1.5    c-1.3,0-2-0.8-2.1-1.7h0.9c0.1,0.6,0.5,1,1.2,1c0.6,0,1.1-0.3,1.1-0.7c0-0.5-0.5-0.7-1-0.8l-0.7-0.1c-0.7-0.1-1.4-0.4-1.4-1.3    c0-0.9,0.9-1.4,1.9-1.4c1,0,1.8,0.6,1.9,1.5h-0.9C210.2,52.5,209.8,52.2,209.2,52.2z"/>
		<path class="st0" d="M214.4,55.9c0.7,0,1.1-0.3,1.3-0.8h0.8c-0.2,0.8-1,1.5-2.2,1.5c-1.5,0-2.4-1.1-2.4-2.5c0-1.5,1-2.5,2.4-2.5    c1.5,0,2.4,1.2,2.3,2.8h-3.7C212.9,55.4,213.7,55.9,214.4,55.9z M215.8,53.6c0-0.7-0.5-1.4-1.4-1.4c-0.7,0-1.4,0.4-1.5,1.4H215.8z    "/>
		<path class="st0" d="M217.7,56.5v-6.5h0.8v6.5H217.7z"/>
	</g>
	<g>
		<rect x="50.3" y="48.5" class="st0" width="6.1" height="8"/>
		<g>
			<path class="st0" d="M45.9,17.6h2.6c3.3,0,4-2.5,4-9c0-3.9,0-7.4-2-8.6h-4.6V17.6z"/>
			<g>
				<path class="st1" d="M34.1,56.5H32c0.3,0.1,0.7,0.2,1.2,0.2C33.5,56.7,33.9,56.6,34.1,56.5z"/>
				<path class="st0" d="M49.3,21.7h-8.9V0H0v18.2h12.9v4H4.8v6.7h7.8v4H4.8v11.5H0v12h25.3c-1.2-2.5-1.2-6-1.2-9.4      c0-7,0-13.6,9.1-13.6c5.6,0,7.9,3.1,7.6,8.7h-5.4c0-3.5-0.6-4.8-2.3-4.8c-3.1,0-3.5,2.9-3.5,9.6c0,5.7,0.3,8.7,2.3,9.4h2.2      c1.6-0.7,1.5-3.4,1.6-5.2h5.4c0,2.1-0.3,3.8-0.8,5.2h4.4V33.9h5.5v10.5h6.1V18.2C55.2,20.2,53,21.7,49.3,21.7z"/>
			</g>
		</g>
	</g>
</g>
</svg>
